# xmcd
#
# Track frame offsets:
#	150
#	11441
#	22924
#	35808
#	46349
#	57570
#	68497
#	81526
#	89424
#	100715
#	109718
#	119505
#
# Disc length: 1696 seconds
#
# Revision: 0
# Processed by: cddbd v1.5.1PL0 Copyright (c) Steve Scherf et al.
# Submitted via: dBpowerAMP V4.0
#
DISCID=99069e0c
DTITLE=Cláudio Marcelo - Cláudio Marcelo e seu órgão
DYEAR=1900
DGENRE=Blues
TTITLE0=Drink Na Praia
TTITLE1=People
TTITLE2=And I Love Her
TTITLE3=Nature Boy
TTITLE4=Adventure In Paradise
TTITLE5=Preciso Aprender A Ser Só
TTITLE6=Não Quero Ver Você Triste
TTITLE7=The Shadow Of Your Smile
TTITLE8=Three Stars Will Shine Tonight (Dr. Kildare)
TTITLE9=Naked City
TTITLE10=Limelight
TTITLE11=Fio De Esperança
EXTD=
EXTT0=
EXTT1=
EXTT2=
EXTT3=
EXTT4=
EXTT5=
EXTT6=
EXTT7=
EXTT8=
EXTT9=
EXTT10=
EXTT11=
PLAYORDER=
